<?xml version="1.0" encoding="UTF-8" standalone="no"?>
<!-- Created with Inkscape (http://www.inkscape.org/) -->

<svg
   width="26"
   height="23"
   viewBox="0 0 26 23"
   version="1.1"
   id="svg1"
   sodipodi:docname="Icons_Gallary.svg"
   inkscape:export-filename="Icons_Gallary.png"
   inkscape:export-xdpi="200"
   inkscape:export-ydpi="200"
   inkscape:version="1.3.2 (091e20e, 2023-11-25, custom)"
   xmlns:inkscape="http://www.inkscape.org/namespaces/inkscape"
   xmlns:sodipodi="http://sodipodi.sourceforge.net/DTD/sodipodi-0.dtd"
   xmlns="http://www.w3.org/2000/svg"
   xmlns:svg="http://www.w3.org/2000/svg">
  <sodipodi:namedview
     id="namedview1"
     pagecolor="#505050"
     bordercolor="#eeeeee"
     borderopacity="1"
     inkscape:showpageshadow="0"
     inkscape:pageopacity="0"
     inkscape:pagecheckerboard="0"
     inkscape:deskcolor="#505050"
     inkscape:zoom="24.346154"
     inkscape:cx="13"
     inkscape:cy="11.480253"
     inkscape:window-width="1920"
     inkscape:window-height="1094"
     inkscape:window-x="-11"
     inkscape:window-y="-11"
     inkscape:window-maximized="1"
     inkscape:current-layer="svg1" />
  <defs
     id="defs1" />
  <g
     id="layer3"
     style="display:inline"
     transform="translate(-3,-5)"
     inkscape:label="Gallary">
    <path
       id="path15"
       style="fill: black;fill-opacity:1;stroke-linecap:round;stroke-linejoin:round;paint-order:fill markers stroke"
       d="M 4,5 A 1.0001,1.0001 0 0 0 3,6 v 15 a 1.0001,1.0001 0 0 0 1,1 h 2 v 2 a 1.0001,1.0001 0 0 0 1,1 h 2 v 2 a 1.0001,1.0001 0 0 0 1,1 h 18 a 1.0001,1.0001 0 0 0 1,-1 V 12 A 1.0001,1.0001 0 0 0 28,11 H 26 V 9 A 1.0001,1.0001 0 0 0 25,8 H 23 V 6 A 1.0001,1.0001 0 0 0 22,5 Z M 5,7 H 21 V 8 H 7 A 1.0001,1.0001 0 0 0 6,9 V 20 H 5 Z m 3,3 h 13 2 1 v 1 H 23.5 23 21 10 a 1.0001,1.0001 0 0 0 -1,1 v 8 2 1 H 8 v -1 -2 z m 3,3 h 10 2 1 2 1 V 26 H 11 v -1 -2 -1 -2 z" />
  </g>
</svg>
