<?xml version="1.0" encoding="UTF-8" standalone="no"?>
<!-- Created with Inkscape (http://www.inkscape.org/) -->

<svg
   width="0.33333328in"
   height="0.33333319in"
   viewBox="0 0 0.33333328 0.33333319"
   version="1.1"
   id="svg1"
   xmlns="http://www.w3.org/2000/svg"
   xmlns:svg="http://www.w3.org/2000/svg">
  <defs
     id="defs1" />
  <g
     id="layer7"
     transform="translate(-5.4003873,-5.4003873)">
    <path
       d="M 6.4003906,5.4003906 A 0.20002,0.20002 0 0 0 6.2011719,5.5839844 L 6.0117187,7.8515625 5.5371094,8.0097656 A 0.20002,0.20002 0 0 0 5.4003906,8.1992188 V 8.4003906 A 0.20002,0.20002 0 0 0 5.5996094,8.5996094 H 8.4003906 A 0.20002,0.20002 0 0 0 8.5996094,8.4003906 V 7.1992187 A 0.20002,0.20002 0 0 0 8.4492188,7.0058594 L 7.6484375,6.8066406 a 0.20002,0.20002 0 0 0 -0.048828,-0.00586 H 6.9726562 L 6.7988281,5.5722656 A 0.20002,0.20002 0 0 0 6.5996094,5.4003906 Z M 6.4000041,5.5999959 H 6.5999959 L 6.8000081,7 H 7.5999959 L 8.4000041,7.1999919 V 8.4000041 H 5.5999959 V 8.1999919 L 6.1999919,8 Z"
       style="display:none;fill:#ffffff;stroke-linecap:round;stroke-linejoin:round;stroke-miterlimit:3;paint-order:markers stroke fill"
       id="path1" />
    <path
       d="m 5.4956921,5.4003881 a 0.0476103,0.0476103 0 0 0 -0.047884,0.04742 v 0.1427236 a 0.0476103,0.0476103 0 0 0 -0.04742,0.047884 v 0.04742 a 0.0476103,0.0476103 0 0 0 0.04742,0.047884 h 0.2380277 a 0.0476103,0.0476103 0 0 0 0.047884,-0.047884 V 5.5905313 A 0.0476103,0.0476103 0 0 0 5.701177,5.5454362 L 5.5905313,5.5087093 v -0.060902 a 0.0476103,0.0476103 0 0 0 -0.04742,-0.04742 z m -1.84e-4,0.047512 h 0.047604 v 0.095212 l 0.1428157,0.047604 v 0.095212 H 5.4478997 v -0.047604 h 0.047608 z"
       style="fill:#ffffff;stroke-width:0.238028;stroke-linecap:round;stroke-linejoin:round;stroke-miterlimit:3;paint-order:markers stroke fill"
       id="path10" />
  </g>
</svg>
