<?xml version="1.0" encoding="UTF-8" standalone="no"?>
<!-- Created with Inkscape (http://www.inkscape.org/) -->

<svg
   width="0.33333254in"
   height="0.33333275in"
   viewBox="0 0 0.33333254 0.33333275"
   version="1.1"
   id="svg1"
   xmlns="http://www.w3.org/2000/svg"
   xmlns:svg="http://www.w3.org/2000/svg">
  <defs
     id="defs1" />
  <g
     id="layer6"
     transform="translate(-0.39991221,-5.3999128)">
    <path
       d="m 0.59454346,5.4001465 a 0.20002,0.20002 0 0 0 -0.18438721,0.263916 l 0.99999995,3 A 0.20002,0.20002 0 0 0 1.5996094,8.8007813 H 1.8007812 A 0.20002,0.20002 0 0 0 2,8.5996094 V 7.0820312 L 2.0820313,7 H 3.4003906 A 0.20002,0.20002 0 0 0 3.5996094,6.8007812 V 6.5996094 a 0.20002,0.20002 0 0 0 -0.1328125,-0.1875 l -2.79882815,-1 a 0.20002,0.20002 0 0 0 -0.0734253,-0.011963 z m 0.005452,0.1998494 2.80000814,1 V 6.8000081 H 2 L 1.8000081,7 V 8.5999959 H 1.5999959 Z"
       style="display:none;fill:#ffffff;stroke-linecap:round;stroke-linejoin:round;stroke-miterlimit:3;paint-order:markers stroke fill"
       id="path2" />
    <path
       d="m 0.45333097,5.4002549 a 0.04771553,0.04771553 0 0 0 -0.0500433,0.065001 l 0.0955147,0.2385538 a 0.04771553,0.04771553 0 0 0 0.0917873,-0.017705 v -0.095515 h 0.0955147 a 0.04771553,0.04771553 0 0 0 0.0177052,-0.091787 L 0.46525575,5.4032883 a 0.04771553,0.04771553 0 0 0 -0.0119248,-0.00303 z m -0.005688,0.047388 0.23855376,0.095423 H 0.54306528 v 0.1431312 z"
       style="fill:#ffffff;stroke-width:0.238554;stroke-linecap:round;stroke-linejoin:round;stroke-miterlimit:3;paint-order:markers stroke fill"
       id="path7" />
  </g>
</svg>
