<?xml version="1.0" encoding="UTF-8" standalone="no"?>
<!-- Created with Inkscape (http://www.inkscape.org/) -->

<svg
   width="2.5996127in"
   height="2.1992221in"
   viewBox="0 0 2.5996127 2.1992221"
   version="1.1"
   id="svg1"
   xmlns="http://www.w3.org/2000/svg"
   xmlns:svg="http://www.w3.org/2000/svg">
  <defs
     id="defs1" />
  <g
     id="layer2"
     transform="translate(-5.7044775,-0.90038893)">
    <path
       id="path109"
       style="fill:#ffffff;stroke-width:0;stroke-linecap:round;stroke-linejoin:round;stroke-miterlimit:3;paint-order:markers stroke fill"
       d="M 5.9056494,0.90039226 A 0.20002,0.20002 0 0 0 5.7044775,1.0996111 v 1 A 0.20002,0.20002 0 0 0 5.9056494,2.2988299 H 6.1048681 V 2.5000017 A 0.20002,0.20002 0 0 0 6.3040869,2.6992205 H 6.5052587 V 2.9003924 A 0.20002,0.20002 0 0 0 6.7044775,3.0996111 H 8.1048681 A 0.20002,0.20002 0 0 0 8.3040869,2.9003924 v -1 A 0.20002,0.20002 0 0 0 8.1048681,1.6992205 H 7.9056494 V 1.5000017 A 0.20002,0.20002 0 0 0 7.7044775,1.2988298 H 7.5052587 V 1.0996111 A 0.20002,0.20002 0 0 0 7.3040869,0.90039226 Z M 5.9047338,1.099489 H 7.3047379 V 1.2988298 H 7.1048681 6.3040869 A 0.20002,0.20002 0 0 0 6.1048681,1.5000017 V 1.9003924 2.099489 H 5.9047338 Z M 6.3047379,1.4994728 H 7.1048681 7.3047379 7.5052587 7.704742 V 1.6992205 H 7.5052587 7.3047379 7.1048681 6.7044775 A 0.20002,0.20002 0 0 0 6.5052587,1.9003924 V 2.099489 2.2988299 2.4994728 H 6.3047379 V 2.2988299 2.099489 1.9003924 Z M 6.704742,1.8994768 H 7.1048681 7.3047379 7.5052587 7.704742 7.9056494 8.104746 v 1 H 6.704742 V 2.6992205 2.4994728 2.2988299 2.099489 1.9003924 Z"
       onmouseover="this.style.fill = 'purple';"
       onmouseout="this.style.fill = 'white';" />
  </g>
</svg>
