<?xml version="1.0" encoding="UTF-8" standalone="no"?>
<!-- Created with Inkscape (http://www.inkscape.org/) -->

<svg
   width="2.3984396in"
   height="3.1992188in"
   viewBox="0 0 2.3984396 3.1992188"
   version="1.1"
   id="svg1"
   xmlns="http://www.w3.org/2000/svg"
   xmlns:svg="http://www.w3.org/2000/svg">
  <defs
     id="defs1" />
  <g
     id="layer4"
     transform="translate(-15.800781,-0.40039062)">
    <path
       id="path195"
       style="fill:#ffffff;stroke-linecap:round;stroke-linejoin:round;stroke-miterlimit:3;paint-order:markers stroke fill"
       d="m 16,0.40039062 c -0.109843,4.39e-4 -0.19878,0.0893756 -0.199219,0.19921876 V 3.4003906 C 15.80122,3.5102338 15.890157,3.5991704 16,3.5996094 h 2 c 0.109843,-4.39e-4 0.19878,-0.089376 0.199219,-0.1992188 v -2 c 2.29e-4,-0.058743 -0.02416,-0.1055637 -0.05835,-0.142325 l -2.44e-4,-2.441e-4 -0.798828,-0.79882812 -3.46e-4,-2.238e-4 c -0.02295,-0.020677 -0.07442,-0.0587173 -0.14224,-0.05837 z m 0,0.19960531 h 1 V 1.4003906 c 4.39e-4,0.1098432 0.08938,0.1987798 0.199219,0.1992188 H 18 v 1.8003947 h -2 z m 1.200012,0 L 18,1.4000041 H 17.200012 Z M 16.400384,2.0996099 c -0.05492,2.138e-4 -0.0994,0.044685 -0.09961,0.099609 -8.71e-4,0.055685 0.04392,0.101352 0.09961,0.1015624 h 1.199218 c 0.05569,-2.104e-4 0.100481,-0.045877 0.09961,-0.1015624 -2.14e-4,-0.054924 -0.04469,-0.099396 -0.09961,-0.099609 z m 0,0.8007812 c -0.05492,2.138e-4 -0.0994,0.044685 -0.09961,0.099609 2.14e-4,0.054924 0.04469,0.099396 0.09961,0.099609 h 1.199218 c 0.05492,-2.138e-4 0.0994,-0.044685 0.09961,-0.099609 -2.14e-4,-0.054924 -0.04469,-0.099396 -0.09961,-0.099609 z"
       onmouseover="this.style.fill = 'purple';"
       onmouseout="this.style.fill = 'white';" />
  </g>
</svg>
