<?xml version="1.0" encoding="UTF-8" standalone="no"?>
<!-- Created with Inkscape (http://www.inkscape.org/) -->

<svg
   width="2.9794765in"
   height="2.9791851in"
   viewBox="0 0 2.9794765 2.9791851"
   version="1.1"
   id="svg1"
   xmlns="http://www.w3.org/2000/svg"
   xmlns:svg="http://www.w3.org/2000/svg">
  <defs
     id="defs1" />
  <g
     id="layer3"
     transform="translate(-10.510262,-0.51040743)">
    <path
       id="path175"
       style="fill:#ffffff;stroke-linecap:round;stroke-linejoin:round;stroke-miterlimit:3;paint-order:markers stroke fill"
       d="m 11.309011,0.7106801 a 0.20002,0.20002 0 0 0 0,0.28450008 L 11.732999,1.419168 a 0.20002,0.20002 0 0 0 0.283119,-0.00138 l 0.140868,-0.1408684 a 0.20002,0.20002 0 0 0 0.0014,-0.28311903 L 11.73438,0.56981161 a 0.20002,0.20002 0 0 0 -0.284501,9e-8 z m -0.565692,0.566785 c -0.310742,0.3107423 -0.310743,0.8189702 0,1.1297135 l 0.849357,0.8493568 c 0.310744,0.3107433 0.818971,0.3107424 1.129714,10e-8 l 0.14225,-0.1422501 a 0.20002,0.20002 0 0 0 0,-0.281738 L 12.440652,2.4085595 a 0.20002,0.20002 0 0 0 -0.283119,-0.00138 l -0.14225,0.1422501 -0.564857,-0.5648568 0.14225,-0.14225 a 0.20002,0.20002 0 0 0 -0.0014,-0.2831192 L 11.167307,1.1352149 a 0.20002,0.20002 0 0 0 -0.281738,1e-7 z m 0.141431,0.140883 0.141429,-0.1414298 0.424262,0.4242612 -0.282846,0.2828456 0.848523,0.8485223 0.282845,-0.2828455 0.424261,0.4242612 -0.14143,0.1414299 a 0.59999995,0.59999995 0 0 1 -0.848522,0 L 10.88475,2.2668706 a 0.59999995,0.59999995 0 0 1 0,-0.8485225 z m 0.565691,-0.56569103 0.141415,-0.1414157 0.424262,0.42426123 -0.141416,0.1414157 z m 1.131915,1.13136763 c -0.07866,0.077759 -0.07928,0.2045971 -0.0014,0.2831191 l 0.423987,0.4239878 c 0.0783,0.079205 0.206203,0.079207 0.2845,-10e-8 l 0.140888,-0.1408684 c 0.07921,-0.078296 0.07921,-0.2062044 0,-0.2845 L 13.006343,1.8417752 c -0.07852,-0.077898 -0.20536,-0.077279 -0.283119,0.00138 z m 0.140868,0.1414159 0.141416,-0.1414157 0.424261,0.4242613 -0.141415,0.1414157 z"
       onmouseover="this.style.fill = 'purple';"
       onmouseout="this.style.fill = 'white';" />
  </g>
</svg>
