<?xml version="1.0" encoding="UTF-8" standalone="no"?>
<!-- Created with Inkscape (http://www.inkscape.org/) -->

<svg
   width="3.3007946in"
   height="2.8007812in"
   viewBox="0 0 3.3007946 2.8007812"
   version="1.1"
   id="svg1"
   xmlns="http://www.w3.org/2000/svg"
   xmlns:svg="http://www.w3.org/2000/svg">
  <defs
     id="defs1" />
  <g
     id="layer5"
     transform="translate(-20.599609,-0.59960938)">
    <path
       id="Reels"
       style="fill:#ffffff;stroke-linecap:round;stroke-linejoin:round;stroke-miterlimit:3;paint-order:markers stroke fill"
       d="m 22,0.59960938 c -0.770827,0 -1.400391,0.62956282 -1.400391,1.40039062 0,0.9200266 0.798581,1.4003906 1.400391,1.4003906 h 1.800781 c 0.05492,-2.138e-4 0.0994,-0.044685 0.09961,-0.099609 8.71e-4,-0.055685 -0.04392,-0.101352 -0.09961,-0.1015624 h -1.079569 c -0.513491,0.1741977 -0.459878,0.2668204 -6.1e-5,0 h 6.1e-5 C 23.127527,2.953514 23.400391,2.5074095 23.400391,2 23.400391,1.2291722 22.770827,0.59960938 22,0.59960938 Z m 0,0.20039876 C 22.662743,0.80000195 23.200007,1.337257 23.200012,2 23.199605,2.6586228 22.668428,3.1938315 22.009827,3.1992188 h -2.1e-5 -0.01764 l -4.27e-4,1.22e-4 C 21.332487,3.1947981 20.800355,2.659269 20.800008,2 20.800013,1.3372648 21.337265,0.800013 22,0.80000814 Z m 0,0.10038248 c -0.102038,0 -0.193128,0.0517403 -0.24766,0.13024898 -0.03338,0.04806 -0.05312,0.1061166 -0.05312,0.1685792 C 21.699218,1.363719 21.835499,1.5 22,1.5 c 0.164502,0 0.300781,-0.1362825 0.300781,-0.3007812 0,-0.062463 -0.01974,-0.1205191 -0.05312,-0.1685792 C 22.193128,0.95213067 22.102037,0.90039062 22,0.90039062 Z M 22,1 c 0.110457,0 0.199992,0.089535 0.199992,0.1999919 0,0.110457 -0.08953,0.2000122 -0.199992,0.2000122 -0.110452,0 -0.199992,-0.089555 -0.199992,-0.2000122 C 21.800008,1.0895352 21.88954,1 22,1 Z m -0.75824,0.4524129 c -0.03001,-6.2e-5 -0.05964,0.00443 -0.08793,0.01298 -0.09164,0.02769 -0.169279,0.098038 -0.200704,0.1947631 -0.03158,0.09721 -0.0096,0.2002401 0.04905,0.2765503 0.03574,0.046503 0.08507,0.083108 0.144307,0.102356 0.156451,0.050834 0.328076,-0.036906 0.378907,-0.1933594 0.05083,-0.1564496 -0.03691,-0.3280728 -0.19336,-0.3789062 -0.02987,-0.0097 -0.06026,-0.014322 -0.09027,-0.014384 z m 1.5165,0 c -0.03001,5.75e-5 -0.06042,0.00468 -0.09029,0.014384 -0.156448,0.050834 -0.244188,0.2224576 -0.19336,0.3789062 0.05083,0.1564484 0.222457,0.2441925 0.378907,0.1933594 0.05924,-0.019248 0.108563,-0.055853 0.144307,-0.102356 0.05865,-0.07631 0.08064,-0.1793404 0.04905,-0.2765503 -0.03142,-0.096716 -0.109057,-0.1670478 -0.200684,-0.1947428 -0.02829,-0.00855 -0.05792,-0.013058 -0.08793,-0.013001 z m -1.516642,0.1003418 c 0.01968,2.5e-4 0.03965,0.00343 0.05935,0.00983 0.105048,0.034133 0.162528,0.1469636 0.128398,0.2520141 C 21.395232,1.919646 21.282399,1.977126 21.177348,1.9429932 21.072296,1.9088569 21.01482,1.7960295 21.04895,1.690979 21.07668,1.6056261 21.156358,1.5516747 21.241618,1.5527547 Z m 1.516764,0 c 0.08525,-0.00108 0.164935,0.052871 0.192668,0.1382243 0.03413,0.1050505 -0.02335,0.2178778 -0.128398,0.2520142 -0.105051,0.034133 -0.217884,-0.023347 -0.252014,-0.1283977 -0.03413,-0.1050505 0.02335,-0.2178813 0.128398,-0.2520141 0.0197,-0.0064 0.03968,-0.00958 0.05935,-0.00983 z m -1.23171,0.7948405 c -0.0918,0.0014 -0.18215,0.044093 -0.239563,0.1231079 -0.03709,0.051057 -0.05539,0.1105065 -0.05652,0.1698609 -0.0018,0.095359 0.04089,0.1904645 0.122925,0.250061 0.08244,0.059896 0.186748,0.071072 0.277201,0.039347 0.05557,-0.019489 0.105927,-0.055106 0.142721,-0.1057535 0.09669,-0.1330848 0.06668,-0.3232307 -0.06641,-0.4199219 -0.05406,-0.039281 -0.11755,-0.057659 -0.180359,-0.056702 z m 0.946656,0 c -0.06281,-9.571e-4 -0.126294,0.01742 -0.180359,0.056702 -0.133096,0.096691 -0.16308,0.2868414 -0.06641,0.4199219 0.0368,0.050658 0.08718,0.086267 0.142762,0.1057535 0.09044,0.031707 0.194735,0.02054 0.27716,-0.039347 0.08203,-0.059591 0.124719,-0.1546888 0.122905,-0.2500407 -0.01324,0.015915 -0.02698,0.031403 -0.04118,0.046448 0.0142,-0.015044 0.02793,-0.030532 0.04118,-0.046448 -0.0011,-0.059362 -0.0194,-0.1188193 -0.0565,-0.1698812 -0.05741,-0.079018 -0.147766,-0.121709 -0.239563,-0.1231079 z m -0.948568,0.09967 c 0.004,-1.035e-4 0.008,-9.62e-5 0.01202,4.07e-5 0.03849,0.00132 0.07704,0.013759 0.110555,0.038106 0.08936,0.064925 0.10915,0.1899971 0.04423,0.2793579 -0.06492,0.089361 -0.189998,0.1091758 -0.279358,0.04425 -0.08936,-0.064925 -0.10917,-0.1899971 -0.04425,-0.2793579 0.03804,-0.05236 0.09674,-0.080845 0.156799,-0.082397 z m 0.95048,0 c 0.06006,0.00155 0.118756,0.030037 0.156799,0.082397 0.06492,0.089362 0.04512,0.2144331 -0.04425,0.2793579 -0.08936,0.064925 -0.214428,0.045109 -0.279358,-0.04425 -0.06492,-0.089361 -0.04512,-0.2144331 0.04425,-0.2793579 0.03352,-0.024347 0.07203,-0.036786 0.110535,-0.038106 0.004,-1.369e-4 0.008,-1.442e-4 0.01202,-4.07e-5 z"
       onmouseover="this.style.fill = 'purple';"
       onmouseout="this.style.fill = 'white';" />
  </g>
</svg>
